<svg width="102" height="97" viewBox="0 0 102 97" fill="none" xmlns="http://www.w3.org/2000/svg">
<g clip-path="url(#clip0_32_1678)">
<g clip-path="url(#clip1_32_1678)">
<path d="M93.4722 98.4904L0.817284 98.4907V-0.897949L47.7711 49.797L70.9351 74.4775L93.4722 98.4904Z" fill="#2AF4FF"/>
<path d="M23.8053 80.247V57.2681C23.8053 56.4026 24.5452 55.7012 25.4582 55.7012C26.371 55.7012 27.1108 56.4025 27.1108 57.2681V80.247C27.1106 81.1122 26.3708 81.8136 25.4579 81.8136C24.5452 81.8136 23.8053 81.1122 23.8053 80.247Z" fill="#131313"/>
</g>
</g>
<g clip-path="url(#clip2_32_1678)">
<g clip-path="url(#clip3_32_1678)">
<path d="M0.807472 -0.364258L0.807129 96.2199L104.344 96.2201L51.5333 47.2749L25.8228 23.1286L0.807472 -0.364258Z" fill="#2AF4FF"/>
<path d="M38.4 72.1399H27.838V62.2203C27.838 61.5361 27.2463 60.9805 26.5175 60.9805C25.789 60.9805 25.1973 61.5361 25.1973 62.2203V72.1399H14.6351C13.9065 72.1399 13.3149 72.6954 13.3149 73.3798C13.3149 74.0643 13.9065 74.6198 14.6351 74.6198H25.1973V84.5392C25.1973 85.2237 25.789 85.7793 26.5175 85.7793C27.2463 85.7793 27.838 85.2237 27.838 84.5392V74.6198H38.4C39.1288 74.6198 39.7204 74.0643 39.7204 73.3798C39.7204 72.6954 39.1288 72.1399 38.4 72.1399Z" fill="#131313"/>
</g>
</g>
<defs>
<clipPath id="clip0_32_1678">
<rect width="104.416" height="100.214" fill="white" transform="matrix(-1 0 0 1 104.997 -1.75684)"/>
</clipPath>
<clipPath id="clip1_32_1678">
<rect width="93.9077" height="101.42" fill="white" transform="matrix(-1 0 0 1 94.4883 -1.75684)"/>
</clipPath>
<clipPath id="clip2_32_1678">
<rect width="104.416" height="100.214" fill="white" transform="translate(0.580566 -0.854492)"/>
</clipPath>
<clipPath id="clip3_32_1678">
<rect width="104.416" height="97.8902" fill="white" transform="translate(0.580566 -0.854004)"/>
</clipPath>
</defs>
</svg>
